# xmcd
#
# Track frame offsets:
#	150
#	17228
#	35229
#	53263
#	73318
#	86517
#	103694
#	120243
#	136735
#	155213
#	181334
#	197483
#	214875
#
# Disc length: 3433 seconds
#
# Revision: 0
# Processed by: cddbd v1.5.2PL0 Copyright (c) Steve Scherf et al.
# Submitted via: audiograbber 1.83.01
#
DISCID=b30d670d
DTITLE=Slow Rollin' Lows - One of These Days
DYEAR=2007
DGENRE=Texas Country
TTITLE0=Come Around
TTITLE1=One of These Days
TTITLE2=Just Wanted You To Know
TTITLE3=Your Baby
TTITLE4=Jesus Loves A Man Who Writes A Song
TTITLE5=Jim Beam Train
TTITLE6=Forevermore
TTITLE7=My Best Friend
TTITLE8=The Weekend Song
TTITLE9=You're All I Need
TTITLE10=So Long
TTITLE11=Good Times Don't End
TTITLE12=My Home's Out On The Road
EXTD=
EXTT0=
EXTT1=
EXTT2=
EXTT3=
EXTT4=
EXTT5=
EXTT6=
EXTT7=
EXTT8=
EXTT9=
EXTT10=
EXTT11=
EXTT12=
PLAYORDER=
